<mxfile host="app.diagrams.net" modified="2023-10-06T06:31:23.596Z" agent="Mozilla/5.0 (Macintosh; Intel Mac OS X 10_15_7) AppleWebKit/537.36 (KHTML, like Gecko) Chrome/116.0.0.0 Safari/537.36" version="22.0.3" etag="5K5h9va00F4gHsh71tyJ" type="github">
  <diagram name="페이지-1" id="Gm9cE7F4Ou4hL8HedqTo">
    <mxGraphModel>
      <root>
        <mxCell id="0" />
        <mxCell id="1" parent="0" />
      </root>
    </mxGraphModel>
  </diagram>
</mxfile>
